# File created by Blade
# Date/Time:  Wed Sep 24 20:21:23 2014
# Frame Rate: 120.000 fps
#------------------------------------------------------
:FULLY-SPECIFIED
:DEGREES
1009
root -2.765093 32.694406 -3.852287 10.175747 1.902836 -0.963275
Spine -8.388659 -2.313527 2.550359
Head -11.360971 5.322955 4.515997
LeftShoulder -5.861819 17.849393 13.650519
LeftArm 22.498656 26.499132 -77.183970
LeftForeArm -25.671524 -0.000000 13.279909
LeftHand -33.540176 -0.000000 16.502576
LeftHandThumb1 -26.253704 0.000000 33.147579
RightShoulder -18.400335 8.784749 -23.624684
RightArm -21.226644 -33.745106 104.636982
RightForeArm -22.681762 -0.000000 17.741245
RightHand -5.418513 -0.000000 1.630120
RightHandThumb1 -24.326973 -0.000000 -32.862282
LeftUpLeg -5.145609 16.316167 0.712524
LeftLeg 0.757434 -0.000000 -0.000000
LeftFoot -12.578832 1.656482 -20.406600
LeftToeBase 7.853101 -0.000000 -0.000000
RightUpLeg -6.316450 -4.926154 -1.107809
RightLeg 3.927704 -0.000000 -0.000000
RightFoot -11.413399 -6.470386 -5.310172
RightToeBase -1.525866 -0.000000 0.000000
1010
root -2.729218 32.697868 -3.867937 10.220680 1.859107 -0.981488
Spine -8.423146 -2.036357 2.617133
Head -10.746763 5.267630 4.684926
LeftShoulder -6.052255 18.067060 13.800832
LeftArm 21.436981 24.653605 -78.667328
LeftForeArm -25.262644 0.000000 13.480376
LeftHand -33.681867 -0.000000 17.106372
LeftHandThumb1 -26.253704 0.000000 33.147579
RightShoulder -18.507118 8.885743 -23.528089
RightArm -20.952696 -34.161743 104.354022
RightForeArm -22.872988 -0.000000 18.306341
RightHand -5.488646 -0.000000 0.957508
RightHandThumb1 -24.326973 -0.000000 -32.862282
LeftUpLeg -5.274072 16.182563 0.637863
LeftLeg 0.867872 -0.000000 -0.000000
LeftFoot -12.697836 1.907265 -20.169330
LeftToeBase 7.830738 -0.000000 -0.000000
RightUpLeg -6.327047 -4.546300 -1.199021
RightLeg 3.790480 -0.000000 -0.000000
RightFoot -11.259529 -6.669123 -5.120256
RightToeBase -1.573463 -0.000000 0.000000
1011
root -2.694079 32.698234 -3.877191 10.152656 1.881980 -0.979450
Spine -8.314151 -1.810274 2.637965
Head -10.125581 5.125287 4.984598
LeftShoulder -6.127320 18.230128 14.056607
LeftArm 20.550706 23.234576 -79.972533
LeftForeArm -25.024334 0.000000 13.710466
LeftHand -33.720646 -0.000000 17.428133
LeftHandThumb1 -26.253704 0.000000 33.147579
RightShoulder -18.604045 8.996275 -23.414993
RightArm -20.559634 -34.329933 103.908896
RightForeArm -22.939084 -0.000000 18.830500
RightHand -5.569099 -0.000000 0.458660
RightHandThumb1 -24.326973 -0.000000 -32.862282
LeftUpLeg -5.235468 15.785832 0.608924
LeftLeg 0.917070 -0.000000 -0.000000
LeftFoot -12.883767 2.311577 -20.053562
LeftToeBase 7.836622 -0.000000 -0.000000
RightUpLeg -6.246945 -4.166613 -1.309871
RightLeg 3.752948 -0.000000 -0.000000
RightFoot -11.207014 -6.967087 -4.934503
RightToeBase -1.482624 -0.000000 0.000000
1012
root -2.649334 32.698743 -3.890749 10.071025 1.828045 -0.957524
Spine -8.175586 -1.536399 2.665895
Head -9.512043 5.010931 5.205880
LeftShoulder -6.179248 18.467715 14.275992
LeftArm 19.956950 22.274312 -81.022864
LeftForeArm -24.984857 -0.000000 13.894623
LeftHand -33.572483 -0.000000 17.755655
LeftHandThumb1 -26.253704 0.000000 33.147579
RightShoulder -18.674918 9.053374 -23.332014
RightArm -19.979244 -34.546642 103.349440
RightForeArm -22.856512 -0.000000 19.302288
RightHand -5.691013 -0.000000 -0.036012
RightHandThumb1 -24.326973 -0.000000 -32.862282
LeftUpLeg -5.175140 15.366951 0.531083
LeftLeg 0.950828 -0.000000 -0.000000
LeftFoot -13.110273 2.851330 -19.934448
LeftToeBase 7.870451 -0.000000 -0.000000
RightUpLeg -6.169887 -3.986493 -1.453083
RightLeg 3.701669 -0.000000 -0.000000
RightFoot -11.141983 -6.971383 -4.807178
RightToeBase -1.544792 -0.000000 0.000000
1013
root -2.617515 32.697603 -3.897193 9.885396 1.858717 -1.028611
Spine -7.911877 -1.295817 2.774934
Head -8.902780 4.795394 5.557641
LeftShoulder -6.070263 18.489734 14.538749
LeftArm 19.233711 21.413558 -82.090448
LeftForeArm -24.838377 -0.000000 14.073771
LeftHand -33.593780 -0.000000 18.090587
LeftHandThumb1 -26.253704 0.000000 33.147579
RightShoulder -18.716079 9.231002 -23.247604
RightArm -19.458943 -34.707937 102.777251
RightForeArm -22.682138 -0.000000 19.705457
RightHand -5.815516 -0.000000 -0.838314
RightHandThumb1 -24.326973 -0.000000 -32.862282
LeftUpLeg -4.989423 14.836570 0.624631
LeftLeg 0.962098 -0.000000 -0.000000
LeftFoot -13.344461 3.363627 -19.864272
LeftToeBase 7.763945 -0.000000 -0.000000
RightUpLeg -5.988924 -3.532900 -1.497332
RightLeg 3.708706 -0.000000 -0.000000
RightFoot -11.095027 -7.279265 -4.507959
RightToeBase -1.500103 -0.000000 0.000000
1014
root -2.587008 32.694871 -3.900705 9.649500 1.849935 -1.080270
Spine -7.571875 -1.041786 2.830137
Head -8.381411 4.614562 5.928882
LeftShoulder -5.967954 18.526989 14.794585
LeftArm 18.764149 21.102778 -82.873396
LeftForeArm -24.857209 -0.000000 14.139502
LeftHand -33.588767 -0.000000 18.447082
LeftHandThumb1 -26.253704 0.000000 33.147579
RightShoulder -18.767932 9.481832 -23.202333
RightArm -18.972947 -35.026855 102.263839
RightForeArm -22.359377 0.000000 20.095757
RightHand -5.908222 0.000000 -0.491715
RightHandThumb1 -24.326973 -0.000000 -32.862282
LeftUpLeg -4.711768 14.323829 0.712868
LeftLeg 0.908305 -0.000000 -0.000000
LeftFoot -13.556207 3.871236 -19.835632
LeftToeBase 7.785488 -0.000000 -0.000000
RightUpLeg -5.762663 -3.135830 -1.557213
RightLeg 3.724433 -0.000000 -0.000000
RightFoot -11.075523 -7.520932 -4.345632
RightToeBase -1.452151 -0.000000 0.000000
1015
root -2.544619 32.692048 -3.918630 9.476447 1.780992 -1.099247
Spine -7.266851 -0.765307 2.897652
Head -7.865954 4.416761 6.276818
LeftShoulder -5.775067 18.421743 15.018554
LeftArm 18.263417 20.789191 -83.707340
LeftForeArm -24.547216 -0.000000 14.013212
LeftHand -33.615552 -0.000000 18.373463
LeftHandThumb1 -26.253704 0.000000 33.147579
RightShoulder -18.741830 9.645392 -23.170509
RightArm -18.263968 -35.428691 101.649979
RightForeArm -22.189075 -0.000000 20.410338
RightHand -6.014981 -0.000000 -0.776347
RightHandThumb1 -24.326973 -0.000000 -32.862282
LeftUpLeg -4.503477 13.742731 0.710821
LeftLeg 0.817818 -0.000000 -0.000000
LeftFoot -13.792479 4.568484 -19.739165
LeftToeBase 7.711875 -0.000000 -0.000000
RightUpLeg -5.653243 -2.837757 -1.658522
RightLeg 3.776509 -0.000000 -0.000000
RightFoot -11.055191 -7.648297 -4.250222
RightToeBase -1.433654 -0.000000 0.000000
1016
root -2.505469 32.686426 -3.925746 9.258464 1.730399 -1.115314
Spine -6.937729 -0.504067 2.951196
Head -7.404798 4.226863 6.607176
LeftShoulder -5.581895 18.341563 15.190039
LeftArm 17.849094 21.123219 -84.226284
LeftForeArm -24.773855 -0.000000 14.075878
LeftHand -33.459472 -0.000000 18.880050
LeftHandThumb1 -26.253704 0.000000 33.147579
RightShoulder -18.753713 9.805737 -23.199257
RightArm -17.578354 -36.041942 101.146269
RightForeArm -21.998261 -0.000000 20.688112
RightHand -6.146120 -0.000000 -1.415068
RightHandThumb1 -24.326973 -0.000000 -32.862282
LeftUpLeg -4.228564 13.296008 0.719532
LeftLeg 0.720918 -0.000000 -0.000000
LeftFoot -14.021375 5.120050 -19.581542
LeftToeBase 7.855772 -0.000000 -0.000000
RightUpLeg -5.446363 -2.608367 -1.752670
RightLeg 3.774648 -0.000000 -0.000000
RightFoot -11.053777 -7.809694 -4.208834
RightToeBase -1.416707 -0.000000 0.000000
1017
root -2.455257 32.682341 -3.940200 9.128419 1.675834 -1.050931
Spine -6.700084 -0.305140 2.944476
Head -6.996074 4.020393 6.922843
LeftShoulder -5.436372 18.285564 15.269629
LeftArm 17.586374 21.441059 -84.682558
LeftForeArm -24.775741 0.000000 13.945639
LeftHand -33.510658 -0.000000 18.936403
LeftHandThumb1 -26.253704 0.000000 33.147579
RightShoulder -18.680748 9.928809 -23.224158
RightArm -16.799641 -36.609698 100.550482
RightForeArm -21.817133 -0.000000 21.023959
RightHand -6.366925 0.000000 -1.652533
RightHandThumb1 -24.326973 -0.000000 -32.862282
LeftUpLeg -4.024697 12.815078 0.611840
LeftLeg 0.552394 -0.000000 -0.000000
LeftFoot -14.123133 5.639985 -19.576288
LeftToeBase 7.805455 -0.000000 -0.000000
RightUpLeg -5.324670 -2.554465 -1.925168
RightLeg 3.730016 -0.000000 -0.000000
RightFoot -11.048864 -7.794284 -4.225477
RightToeBase -1.409374 -0.000000 0.000000
1018
root -2.420873 32.677899 -3.953636 8.967373 1.624190 -1.052406
Spine -6.420506 -0.085379 2.969729
Head -6.641244 3.826420 7.258641
LeftShoulder -5.254480 18.192061 15.332505
LeftArm 17.424034 21.946801 -85.021067
LeftForeArm -24.704573 0.000000 13.752123
LeftHand -33.379370 -0.000000 19.000687
LeftHandThumb1 -26.253704 0.000000 33.147579
RightShoulder -18.642336 10.158689 -23.275740
RightArm -16.108915 -37.199513 100.016563
RightForeArm -21.663300 -0.000000 21.327966
RightHand -6.342448 -0.000000 -2.007260
RightHandThumb1 -24.326973 -0.000000 -32.862282
LeftUpLeg -3.847656 12.664854 0.580858
LeftLeg 0.495240 -0.000000 -0.000000
LeftFoot -14.207840 5.867909 -19.447059
LeftToeBase 7.791502 -0.000000 -0.000000
RightUpLeg -5.221595 -2.622680 -1.999343
RightLeg 3.782438 -0.000000 -0.000000
RightFoot -11.083318 -7.638184 -4.176206
RightToeBase -1.442839 -0.000000 0.000000
1019
root -2.386705 32.674669 -3.972817 8.863129 1.542081 -1.049771
Spine -6.190780 0.152593 2.972290
Head -6.332835 3.616261 7.626163
LeftShoulder -5.150884 18.121540 15.298476
LeftArm 17.424128 22.591774 -85.201733
LeftForeArm -24.612944 -0.000000 13.494089
LeftHand -33.340252 -0.000000 18.559175
LeftHandThumb1 -26.253704 0.000000 33.147579
RightShoulder -18.591067 10.333385 -23.286967
RightArm -15.385088 -37.682083 99.395952
RightForeArm -21.697661 -0.000000 21.821280
RightHand -6.538354 0.000000 -2.235949
RightHandThumb1 -24.326973 -0.000000 -32.862282
LeftUpLeg -3.733228 12.606064 0.523373
LeftLeg 0.430248 -0.000000 -0.000000
LeftFoot -14.251770 6.028392 -19.344309
LeftToeBase 7.746535 -0.000000 -0.000000
RightUpLeg -5.193871 -2.661279 -2.065533
RightLeg 3.844802 -0.000000 -0.000000
RightFoot -11.093919 -7.570786 -4.257901
RightToeBase -1.425850 -0.000000 0.000000
1020
root -2.348988 32.671969 -3.995467 8.814142 1.506146 -0.997264
Spine -6.027746 0.310858 2.922598
Head -6.087663 3.409866 7.998273
LeftShoulder -5.089619 18.060974 15.227608
LeftArm 17.455783 23.346406 -85.308394
LeftForeArm -24.440963 -0.000000 13.386324
LeftHand -33.238325 -0.000000 18.573078
LeftHandThumb1 -26.253704 0.000000 33.147579
RightShoulder -18.525040 10.608006 -23.334855
RightArm -14.787264 -38.155544 98.863654
RightForeArm -21.830236 -0.000000 22.308668
RightHand -6.604967 -0.000000 -2.260915
RightHandThumb1 -24.326973 -0.000000 -32.862282
LeftUpLeg -3.693526 12.704931 0.391413
LeftLeg 0.375189 -0.000000 -0.000000
LeftFoot -14.198445 6.013671 -19.150860
LeftToeBase 7.749363 -0.000000 -0.000000
RightUpLeg -5.188114 -2.692498 -2.180600
RightLeg 3.838665 -0.000000 -0.000000
RightFoot -11.104331 -7.485937 -4.188323
RightToeBase -1.354632 -0.000000 0.000000
1021
root -2.314188 32.670892 -4.025688 8.864125 1.449833 -0.927286
Spine -5.977097 0.489816 2.836746
Head -5.906874 3.169788 8.292336
LeftShoulder -5.032301 17.978336 15.127956
LeftArm 17.462357 24.067007 -85.398359
LeftForeArm -23.891824 -0.000000 13.335192
LeftHand -33.023436 -0.000000 18.413772
LeftHandThumb1 -26.253704 0.000000 33.147579
RightShoulder -18.506128 10.691306 -23.357853
RightArm -13.965051 -38.684951 98.224199
RightForeArm -21.926705 -0.000000 22.835512
RightHand -6.570201 -0.000000 -2.407766
RightHandThumb1 -24.326973 -0.000000 -32.862282
LeftUpLeg -3.763158 12.910526 0.222331
LeftLeg 0.307778 -0.000000 -0.000000
LeftFoot -14.080326 5.866396 -19.022704
LeftToeBase 7.787692 -0.000000 -0.000000
RightUpLeg -5.287572 -2.780855 -2.305278
RightLeg 3.812557 -0.000000 -0.000000
RightFoot -11.083667 -7.364150 -4.218587
RightToeBase -1.361903 -0.000000 0.000000
